<?xml version="1.0" ?><!DOCTYPE svg  PUBLIC '-//W3C//DTD SVG 1.1//EN'  'http://www.w3.org/Graphics/SVG/1.1/DTD/svg11.dtd'><svg enable-background="new 0 0 150 150" height="150px" id="Layer_1" version="1.1" viewBox="0 0 150 150" width="150px" xml:space="preserve" xmlns="http://www.w3.org/2000/svg" xmlns:xlink="http://www.w3.org/1999/xlink"><g><circle cx="74.997" cy="75" fill="#5088AE" opacity="0.1" r="75"/><path d="M74.997,0v150c41.42,0,75-33.579,75-75.001C149.997,33.578,116.417,0,74.997,0z" fill="#5088AE" opacity="0.1"/><circle cx="74.997" cy="75" fill="#5088AE" r="65.488"/><path d="M74.997,9.512v130.976c36.168,0,65.487-29.319,65.487-65.488C140.484,38.832,111.165,9.512,74.997,9.512z" fill="#497C9F"/><g><path d="M9.582,72.073c-0.042,0.971-0.073,1.945-0.073,2.926c0,36.169,29.32,65.488,65.488,65.488v-5.853    C39.81,134.635,11.114,106.882,9.582,72.073z" fill="#497C9F"/><path d="M140.411,72.073c-1.533,34.809-30.228,62.562-65.414,62.562v5.853c36.168,0,65.487-29.319,65.487-65.488    C140.484,74.019,140.454,73.044,140.411,72.073z" fill="#437292"/></g></g><path clip-rule="evenodd" d="M104.687,55.284c0,2.188-1.782,3.955-3.967,3.955h-6.011  c-2.184,0-3.95-1.768-3.95-3.955V48.73c0-1.738,1.129-3.199,2.671-3.728h7.29c2.185,0,3.967,1.766,3.967,3.949V55.284  L104.687,55.284z M104.687,101.08c0,2.185-1.782,3.947-3.967,3.947h-51.11c-2.183,0-3.966-1.763-3.966-3.947V67.75h6.542  c-0.725,2.3-1.129,4.733-1.129,7.25c0,13.195,10.743,23.936,23.936,23.936S98.923,88.195,98.923,75c0-2.517-0.403-4.951-1.128-7.25  h6.892V101.08L104.687,101.08z M90.759,75c0,8.684-7.085,15.762-15.767,15.762c-8.684,0-15.765-7.078-15.765-15.762  c0-2.603,0.652-5.064,1.776-7.25c2.634-5.05,7.909-8.511,13.988-8.511c6.066,0,11.354,3.461,13.98,8.511  C90.1,69.936,90.759,72.397,90.759,75L90.759,75z M103.639,36.33H46.34c-5.344,0-9.671,4.329-9.671,9.675v57.993  c0,5.343,4.327,9.673,9.671,9.673h57.299c5.345,0,9.677-4.33,9.677-9.673V46.005C113.315,40.659,108.983,36.33,103.639,36.33  L103.639,36.33z" fill="#FFFFFF" fill-rule="evenodd"/></svg>